999
FreeCAD v1.1 20260414 (Git shallow)
  0
SECTION
  2
HEADER
  9
$ACADVER
  1
AC1014
  9
$ACADMAINTVER
 70
     9
  9
$DWGCODEPAGE
  3
ANSI_1252
  9
$TEXTSTYLE
  7
STANDARD
  9
$DIMSTYLE
  2
STANDARD
  9
$DIMTXSTY
  7
STANDARD
  9
$CMLSTYLE
  2
STANDARD
  9
$LUNITS
 70
2
  9
$INSUNITS
 70
4
  9
$PEXTMAX
 10
50
 20
50
 30
50
  9
$PEXTMIN
 10
0
 20
0
 30
0
  9
$HANDSEED
  5
FFFF
  0
ENDSEC
  0
SECTION
  2
CLASSES
  0
CLASS
  1
ACDBDICTIONARYWDFLT
  2
AcDbDictionaryWithDefault
  3
ObjectDBX Classes
 90
        0
280
     0
281
     0
  0
CLASS
  1
XRECORD
  2
AcDbXrecord
  3
ObjectDBX Classes
 90
        0
280
     0
281
     0
  0
CLASS
  1
LWPOLYLINE
  2
AcDbPolyline
  3
ObjectDBX Classes
 90
        0
280
     0
281
     1
  0
ENDSEC
  0
SECTION
  2
TABLES
  0
TABLE
  2
VPORT
  5
20
330
0
100
AcDbSymbolTable
 70
     1
  0
VPORT
  5
21
330
20
100
AcDbSymbolTableRecord
100
AcDbViewportTableRecord
  2
*ACTIVE
 70
     0
  0
ENDTAB
  0
TABLE
  2
LTYPE
  5
22
330
0
100
AcDbSymbolTable
 70
     1
  0
LTYPE
  5
23
330
21
100
AcDbSymbolTableRecord
100
AcDbLinetypeTableRecord
  2
BYBLOCK
 70
     0
  3

 72
    65
 73
     0
 40
0.0
  0
LTYPE
  5
24
330
21
100
AcDbSymbolTableRecord
100
AcDbLinetypeTableRecord
  2
BYLAYER
 70
     0
  3

 72
    65
 73
     0
 40
0.0
  0
LTYPE
  5
25
330
21
100
AcDbSymbolTableRecord
100
AcDbLinetypeTableRecord
  2
CONTINUOUS
 70
     0
  3
Solid line
 72
    65
 73
     0
 40
0.0
  0
ENDTAB
  0
TABLE
  2
LAYER
  5
AB2
330
0
100
AcDbSymbolTable
 70
3
  0
LAYER
  5
AB3
330
AB2
100
AcDbSymbolTableRecord
100
AcDbLayerTableRecord
  2
0
 70
   0
 62
   7
  6
CONTINUOUS
  0
LAYER
  5
AB4
330
AB2
100
AcDbSymbolTableRecord
100
AcDbLayerTableRecord
  2
none
 70
    0
 62
    7
  6
CONTINUOUS
  0
LAYER
  5
AB5
330
AB2
100
AcDbSymbolTableRecord
100
AcDbLayerTableRecord
  2
silk
 70
    0
 62
    7
  6
CONTINUOUS
  0
ENDTAB
  0
TABLE
  2
STYLE
  5
70
330
0
100
AcDbSymbolTable
 70
     2
  0
STYLE
  5
71
330
70
100
AcDbSymbolTableRecord
100
AcDbTextStyleTableRecord
  2
STANDARD
 70
     0
 40
0.0
 41
1.0
 50
0.0
 71
     0
 42
2.5
  3
arial.ttf
  4

  0
STYLE
  5
72
330
70
100
AcDbSymbolTableRecord
100
AcDbTextStyleTableRecord
  2
ANNOTATIVE
 70
     0
 40
0.0
 41
1.0
 50
0.0
 71
     0
 42
2.5
  3
arial.ttf
  4

  0
ENDTAB
  0
TABLE
  2
VIEW
  5
73
330
0
100
AcDbSymbolTable
 70
     0
  0
ENDTAB
  0
TABLE
  2
UCS
  5
74
330
0
100
AcDbSymbolTable
 70
     0
  0
ENDTAB
  0
TABLE
  2
APPID
  5
75
330
0
100
AcDbSymbolTable
 70
     2
  0
APPID
  5
76
330
75
100
AcDbSymbolTableRecord
100
AcDbRegAppTableRecord
  2
ACAD
 70
     0
  0
APPID
  5
77
330
75
100
AcDbSymbolTableRecord
100
AcDbRegAppTableRecord
  2
ACADANNOTATIVE
 70
     0
  0
ENDTAB
  0
TABLE
  2
DIMSTYLE
  5
78
330
0
100
AcDbSymbolTable
 70
     2
  0
DIMSTYLE
105
79
330
78
100
AcDbSymbolTableRecord
100
AcDbDimStyleTableRecord
  2
STANDARD
 70
     0
  3

  4

  5

  6

  7

 40
0.0
 41
2.5
 42
0.625
 43
3.75
 44
1.25
 45
0.0
 46
0.0
 47
0.0
 48
0.0
140
2.5
141
2.5
142
0.0
143
0.03937007874016
144
1.0
145
0.0
146
1.0
147
0.625
 71
     0
 72
     0
 73
     0
 74
     0
 75
     0
 76
     0
 77
     1
 78
     8
170
     0
171
     3
172
     1
173
     0
174
     0
175
     0
176
     0
177
     0
178
     0
270
     2
271
     2
272
     2
273
     2
274
     3
340
71
275
     0
280
     0
281
     0
282
     0
283
     0
284
     8
285
     0
286
     0
287
     3
288
     0
  0
ENDTAB
  0
TABLE
  2
BLOCK_RECORD
  5
A01
330
0
100
AcDbSymbolTable
  70
5
  0
BLOCK_RECORD
  5
A02
330
A01
100
AcDbSymbolTableRecord
100
AcDbBlockTableRecord
  2
*MODEL_SPACE
  0
BLOCK_RECORD
  5
A03
330
A01
100
AcDbSymbolTableRecord
100
AcDbBlockTableRecord
  2
*PAPER_SPACE
  0
ENDTAB
  0
ENDSEC
  0
SECTION
  2
BLOCKS
  0
BLOCK
  5
A04
330
A02
100
AcDbEntity
  8
0
100
AcDbBlockBegin
  2
*MODEL_SPACE
 70
   0
 10
0
 20
0
 30
0
  3
*MODEL_SPACE
  1
 
  0
ENDBLK
  5
A05
330
A02
100
AcDbEntity
  8
0
100
AcDbBlockEnd
  0
BLOCK
  5
A06
330
A03
100
AcDbEntity
 67
1
  8
0
100
AcDbBlockBegin
  2
*PAPER_SPACE
 70
   0
 10
0
 20
0
 30
0
  3
*PAPER_SPACE
  1
 
  0
ENDBLK
  5
A07
330
A03
100
AcDbEntity
 67
    1
  8
0
100
AcDbBlockEnd
  0
ENDSEC
  0
SECTION
  2
ENTITIES
  0
LINE
  5
A08
330
A02
100
AcDbEntity
  8
silk
100
AcDbLine
 10
-49.382085756
 20
-4.000000000
 30
0.000000000
 11
-49.382085756
 21
4.000000000
 31
0.000000000
  0
LINE
  5
A09
330
A02
100
AcDbEntity
  8
silk
100
AcDbLine
 10
-47.768713663
 20
-4.000000000
 30
0.000000000
 11
-49.382085756
 21
-4.000000000
 31
0.000000000
  0
LINE
  5
A0A
330
A02
100
AcDbEntity
  8
silk
100
AcDbLine
 10
-47.768713663
 20
-0.488372093
 30
0.000000000
 11
-47.768713663
 21
-4.000000000
 31
0.000000000
  0
LINE
  5
A0B
330
A02
100
AcDbEntity
  8
silk
100
AcDbLine
 10
-44.607376453
 20
-0.488372093
 30
0.000000000
 11
-47.768713663
 21
-0.488372093
 31
0.000000000
  0
LINE
  5
A0C
330
A02
100
AcDbEntity
  8
silk
100
AcDbLine
 10
-44.607376453
 20
-4.000000000
 30
0.000000000
 11
-44.607376453
 21
-0.488372093
 31
0.000000000
  0
LINE
  5
A0D
330
A02
100
AcDbEntity
  8
silk
100
AcDbLine
 10
-42.994004360
 20
-4.000000000
 30
0.000000000
 11
-44.607376453
 21
-4.000000000
 31
0.000000000
  0
LINE
  5
A0E
330
A02
100
AcDbEntity
  8
silk
100
AcDbLine
 10
-42.994004360
 20
4.000000000
 30
0.000000000
 11
-42.994004360
 21
-4.000000000
 31
0.000000000
  0
LINE
  5
A0F
330
A02
100
AcDbEntity
  8
silk
100
AcDbLine
 10
-44.607376453
 20
4.000000000
 30
0.000000000
 11
-42.994004360
 21
4.000000000
 31
0.000000000
  0
LINE
  5
A10
330
A02
100
AcDbEntity
  8
silk
100
AcDbLine
 10
-44.607376453
 20
0.860465116
 30
0.000000000
 11
-44.607376453
 21
4.000000000
 31
0.000000000
  0
LINE
  5
A11
330
A02
100
AcDbEntity
  8
silk
100
AcDbLine
 10
-47.768713663
 20
0.860465116
 30
0.000000000
 11
-44.607376453
 21
0.860465116
 31
0.000000000
  0
LINE
  5
A12
330
A02
100
AcDbEntity
  8
silk
100
AcDbLine
 10
-47.768713663
 20
4.000000000
 30
0.000000000
 11
-47.768713663
 21
0.860465116
 31
0.000000000
  0
LINE
  5
A13
330
A02
100
AcDbEntity
  8
silk
100
AcDbLine
 10
-49.382085756
 20
4.000000000
 30
0.000000000
 11
-47.768713663
 21
4.000000000
 31
0.000000000
  0
LINE
  5
A14
330
A02
100
AcDbEntity
  8
silk
100
AcDbLine
 10
-40.297147529
 20
-4.000000000
 30
0.000000000
 11
-40.297147529
 21
4.000000000
 31
0.000000000
  0
LINE
  5
A15
330
A02
100
AcDbEntity
  8
silk
100
AcDbLine
 10
-38.683775436
 20
-4.000000000
 30
0.000000000
 11
-40.297147529
 21
-4.000000000
 31
0.000000000
  0
LINE
  5
A16
330
A02
100
AcDbEntity
  8
silk
100
AcDbLine
 10
-38.683775436
 20
4.000000000
 30
0.000000000
 11
-38.683775436
 21
-4.000000000
 31
0.000000000
  0
LINE
  5
A17
330
A02
100
AcDbEntity
  8
silk
100
AcDbLine
 10
-40.297147529
 20
4.000000000
 30
0.000000000
 11
-38.683775436
 21
4.000000000
 31
0.000000000
  0
LINE
  5
A18
330
A02
100
AcDbEntity
  8
silk
100
AcDbLine
 10
-36.074491279
 20
-4.000000000
 30
0.000000000
 11
-36.074491279
 21
4.000000000
 31
0.000000000
  0
LINE
  5
A19
330
A02
100
AcDbEntity
  8
silk
100
AcDbLine
 10
-34.461119186
 20
-4.000000000
 30
0.000000000
 11
-36.074491279
 21
-4.000000000
 31
0.000000000
  0
LINE
  5
A1A
330
A02
100
AcDbEntity
  8
silk
100
AcDbLine
 10
-34.461119186
 20
-0.604651163
 30
0.000000000
 11
-34.461119186
 21
-4.000000000
 31
0.000000000
  0
LINE
  5
A1B
330
A02
100
AcDbEntity
  8
silk
100
AcDbLine
 10
-31.125363372
 20
-0.604651163
 30
0.000000000
 11
-34.461119186
 21
-0.604651163
 31
0.000000000
  0
LINE
  5
A1C
330
A02
100
AcDbEntity
  8
silk
100
AcDbLine
 10
-31.125363372
 20
0.744186047
 30
0.000000000
 11
-31.125363372
 21
-0.604651163
 31
0.000000000
  0
LINE
  5
A1D
330
A02
100
AcDbEntity
  8
silk
100
AcDbLine
 10
-34.461119186
 20
0.744186047
 30
0.000000000
 11
-31.125363372
 21
0.744186047
 31
0.000000000
  0
LINE
  5
A1E
330
A02
100
AcDbEntity
  8
silk
100
AcDbLine
 10
-34.461119186
 20
2.651162791
 30
0.000000000
 11
-34.461119186
 21
0.744186047
 31
0.000000000
  0
LINE
  5
A1F
330
A02
100
AcDbEntity
  8
silk
100
AcDbLine
 10
-30.596656977
 20
2.651162791
 30
0.000000000
 11
-34.461119186
 21
2.651162791
 31
0.000000000
  0
LINE
  5
A20
330
A02
100
AcDbEntity
  8
silk
100
AcDbLine
 10
-30.596656977
 20
4.000000000
 30
0.000000000
 11
-30.596656977
 21
2.651162791
 31
0.000000000
  0
LINE
  5
A21
330
A02
100
AcDbEntity
  8
silk
100
AcDbLine
 10
-36.074491279
 20
4.000000000
 30
0.000000000
 11
-30.596656977
 21
4.000000000
 31
0.000000000
  0
LINE
  5
A22
330
A02
100
AcDbEntity
  8
silk
100
AcDbLine
 10
-28.250817587
 20
-4.000000000
 30
0.000000000
 11
-28.250817587
 21
4.000000000
 31
0.000000000
  0
LINE
  5
A23
330
A02
100
AcDbEntity
  8
silk
100
AcDbLine
 10
-26.637445494
 20
-4.000000000
 30
0.000000000
 11
-28.250817587
 21
-4.000000000
 31
0.000000000
  0
LINE
  5
A24
330
A02
100
AcDbEntity
  8
silk
100
AcDbLine
 10
-26.637445494
 20
4.000000000
 30
0.000000000
 11
-26.637445494
 21
-4.000000000
 31
0.000000000
  0
LINE
  5
A25
330
A02
100
AcDbEntity
  8
silk
100
AcDbLine
 10
-28.250817587
 20
4.000000000
 30
0.000000000
 11
-26.637445494
 21
4.000000000
 31
0.000000000
  0
LINE
  5
A26
330
A02
100
AcDbEntity
  8
silk
100
AcDbLine
 10
-20.285156250
 20
-1.418604651
 30
0.000000000
 11
-18.715388808
 21
-1.255813953
 31
0.000000000
  0
SPLINE
  5
A27
330
A02
100
AcDbEntity
  8
silk
100
AcDbSpline
210
0
220
0
230
1
 70
8
 71
2
 72
6
 73
3
 74
0
 40
0.000000000
 40
0.000000000
 40
0.000000000
 40
1.000000000
 40
1.000000000
 40
1.000000000
 10
-19.314952762
 20
-3.444404070
 30
0.000000000
 10
-20.127089390
 20
-2.749273256
 30
0.000000000
 10
-20.285156250
 20
-1.418604651
 30
0.000000000
  0
SPLINE
  5
A28
330
A02
100
AcDbEntity
  8
silk
100
AcDbSpline
210
0
220
0
230
1
 70
8
 71
2
 72
6
 73
3
 74
0
 40
0.000000000
 40
0.000000000
 40
0.000000000
 40
1.000000000
 40
1.000000000
 40
1.000000000
 10
-16.987554506
 20
-4.139534884
 30
0.000000000
 10
-18.502816134
 20
-4.139534884
 30
0.000000000
 10
-19.314952762
 20
-3.444404070
 30
0.000000000
  0
SPLINE
  5
A29
330
A02
100
AcDbEntity
  8
silk
100
AcDbSpline
210
0
220
0
230
1
 70
8
 71
2
 72
6
 73
3
 74
0
 40
0.000000000
 40
0.000000000
 40
0.000000000
 40
1.000000000
 40
1.000000000
 40
1.000000000
 10
-15.248819041
 20
-3.847747093
 30
0.000000000
 10
-15.946493459
 20
-4.139534884
 30
0.000000000
 10
-16.987554506
 20
-4.139534884
 30
0.000000000
  0
SPLINE
  5
A2A
330
A02
100
AcDbEntity
  8
silk
100
AcDbSpline
210
0
220
0
230
1
 70
8
 71
2
 72
6
 73
3
 74
0
 40
0.000000000
 40
0.000000000
 40
0.000000000
 40
1.000000000
 40
1.000000000
 40
1.000000000
 10
-14.169603924
 20
-2.955305233
 30
0.000000000
 10
-14.551144622
 20
-3.555595930
 30
0.000000000
 10
-15.248819041
 20
-3.847747093
 30
0.000000000
  0
SPLINE
  5
A2B
330
A02
100
AcDbEntity
  8
silk
100
AcDbSpline
210
0
220
0
230
1
 70
8
 71
2
 72
6
 73
3
 74
0
 40
0.000000000
 40
0.000000000
 40
0.000000000
 40
1.000000000
 40
1.000000000
 40
1.000000000
 10
-13.788063227
 20
-1.667514535
 30
0.000000000
 10
-13.788063227
 20
-2.355014535
 30
0.000000000
 10
-14.169603924
 20
-2.955305233
 30
0.000000000
  0
SPLINE
  5
A2C
330
A02
100
AcDbEntity
  8
silk
100
AcDbSpline
210
0
220
0
230
1
 70
8
 71
2
 72
6
 73
3
 74
0
 40
0.000000000
 40
0.000000000
 40
0.000000000
 40
1.000000000
 40
1.000000000
 40
1.000000000
 10
-14.107103924
 20
-0.393531977
 30
0.000000000
 10
-13.788063227
 20
-0.909156977
 30
0.000000000
 10
-13.788063227
 20
-1.667514535
 30
0.000000000
  0
SPLINE
  5
A2D
330
A02
100
AcDbEntity
  8
silk
100
AcDbSpline
210
0
220
0
230
1
 70
8
 71
2
 72
6
 73
3
 74
0
 40
0.000000000
 40
0.000000000
 40
0.000000000
 40
1.000000000
 40
1.000000000
 40
1.000000000
 10
-14.990098110
 20
0.419331395
 30
0.000000000
 10
-14.425781250
 20
0.122093023
 30
0.000000000
 10
-14.107103924
 20
-0.393531977
 30
0.000000000
  0
SPLINE
  5
A2E
330
A02
100
AcDbEntity
  8
silk
100
AcDbSpline
210
0
220
0
230
1
 70
8
 71
2
 72
6
 73
3
 74
0
 40
0.000000000
 40
0.000000000
 40
0.000000000
 40
1.000000000
 40
1.000000000
 40
1.000000000
 10
-16.731377180
 20
0.997093023
 30
0.000000000
 10
-15.554051599
 20
0.716933140
 30
0.000000000
 10
-14.990098110
 20
0.419331395
 30
0.000000000
  0
SPLINE
  5
A2F
330
A02
100
AcDbEntity
  8
silk
100
AcDbSpline
210
0
220
0
230
1
 70
8
 71
2
 72
6
 73
3
 74
0
 40
0.000000000
 40
0.000000000
 40
0.000000000
 40
1.000000000
 40
1.000000000
 40
1.000000000
 10
-18.213935320
 20
1.535610465
 30
0.000000000
 10
-17.908702762
 20
1.277616279
 30
0.000000000
 10
-16.731377180
 20
0.997093023
 30
0.000000000
  0
SPLINE
  5
A30
330
A02
100
AcDbEntity
  8
silk
100
AcDbSpline
210
0
220
0
230
1
 70
8
 71
2
 72
6
 73
3
 74
0
 40
0.000000000
 40
0.000000000
 40
0.000000000
 40
1.000000000
 40
1.000000000
 40
1.000000000
 10
-18.453760901
 20
2.023982558
 30
0.000000000
 10
-18.453760901
 20
1.738372093
 30
0.000000000
 10
-18.213935320
 20
1.535610465
 30
0.000000000
  0
SPLINE
  5
A31
330
A02
100
AcDbEntity
  8
silk
100
AcDbSpline
210
0
220
0
230
1
 70
8
 71
2
 72
6
 73
3
 74
0
 40
0.000000000
 40
0.000000000
 40
0.000000000
 40
1.000000000
 40
1.000000000
 40
1.000000000
 10
-18.197583576
 20
2.523255814
 30
0.000000000
 10
-18.453760901
 20
2.336482558
 30
0.000000000
 10
-18.453760901
 20
2.023982558
 30
0.000000000
  0
SPLINE
  5
A32
330
A02
100
AcDbEntity
  8
silk
100
AcDbSpline
210
0
220
0
230
1
 70
8
 71
2
 72
6
 73
3
 74
0
 40
0.000000000
 40
0.000000000
 40
0.000000000
 40
1.000000000
 40
1.000000000
 40
1.000000000
 10
-17.096566134
 20
2.813953488
 30
0.000000000
 10
-17.799691134
 20
2.813953488
 30
0.000000000
 10
-18.197583576
 20
2.523255814
 30
0.000000000
  0
SPLINE
  5
A33
330
A02
100
AcDbEntity
  8
silk
100
AcDbSpline
210
0
220
0
230
1
 70
8
 71
2
 72
6
 73
3
 74
0
 40
0.000000000
 40
0.000000000
 40
0.000000000
 40
1.000000000
 40
1.000000000
 40
1.000000000
 10
-16.074763808
 20
2.542514535
 30
0.000000000
 10
-16.415243459
 20
2.813953488
 30
0.000000000
 10
-17.096566134
 20
2.813953488
 30
0.000000000
  0
SPLINE
  5
A34
330
A02
100
AcDbEntity
  8
silk
100
AcDbSpline
210
0
220
0
230
1
 70
8
 71
2
 72
6
 73
3
 74
0
 40
0.000000000
 40
0.000000000
 40
0.000000000
 40
1.000000000
 40
1.000000000
 40
1.000000000
 10
-15.630359738
 20
1.651162791
 30
0.000000000
 10
-15.733920785
 20
2.271075581
 30
0.000000000
 10
-16.074763808
 20
2.542514535
 30
0.000000000
  0
LINE
  5
A35
330
A02
100
AcDbEntity
  8
silk
100
AcDbLine
 10
-14.016987645
 20
1.720930233
 30
0.000000000
 11
-15.630359738
 21
1.651162791
 31
0.000000000
  0
SPLINE
  5
A36
330
A02
100
AcDbEntity
  8
silk
100
AcDbSpline
210
0
220
0
230
1
 70
8
 71
2
 72
6
 73
3
 74
0
 40
0.000000000
 40
0.000000000
 40
0.000000000
 40
1.000000000
 40
1.000000000
 40
1.000000000
 10
-14.815679506
 20
3.480377907
 30
0.000000000
 10
-14.055141715
 20
2.821220930
 30
0.000000000
 10
-14.016987645
 20
1.720930233
 30
0.000000000
  0
SPLINE
  5
A37
330
A02
100
AcDbEntity
  8
silk
100
AcDbSpline
210
0
220
0
230
1
 70
8
 71
2
 72
6
 73
3
 74
0
 40
0.000000000
 40
0.000000000
 40
0.000000000
 40
1.000000000
 40
1.000000000
 40
1.000000000
 10
-17.080214390
 20
4.139534884
 30
0.000000000
 10
-15.575853924
 20
4.139534884
 30
0.000000000
 10
-14.815679506
 20
3.480377907
 30
0.000000000
  0
SPLINE
  5
A38
330
A02
100
AcDbEntity
  8
silk
100
AcDbSpline
210
0
220
0
230
1
 70
8
 71
2
 72
6
 73
3
 74
0
 40
0.000000000
 40
0.000000000
 40
0.000000000
 40
1.000000000
 40
1.000000000
 40
1.000000000
 10
-18.652888808
 20
3.860828488
 30
0.000000000
 10
-18.001362645
 20
4.139534884
 30
0.000000000
 10
-17.080214390
 20
4.139534884
 30
0.000000000
  0
SPLINE
  5
A39
330
A02
100
AcDbEntity
  8
silk
100
AcDbSpline
210
0
220
0
230
1
 70
8
 71
2
 72
6
 73
3
 74
0
 40
0.000000000
 40
0.000000000
 40
0.000000000
 40
1.000000000
 40
1.000000000
 40
1.000000000
 10
-19.650345203
 20
3.049055233
 30
0.000000000
 10
-19.304051599
 20
3.582122093
 30
0.000000000
 10
-18.652888808
 20
3.860828488
 30
0.000000000
  0
SPLINE
  5
A3A
330
A02
100
AcDbEntity
  8
silk
100
AcDbSpline
210
0
220
0
230
1
 70
8
 71
2
 72
6
 73
3
 74
0
 40
0.000000000
 40
0.000000000
 40
0.000000000
 40
1.000000000
 40
1.000000000
 40
1.000000000
 10
-19.996275436
 20
1.903706395
 30
0.000000000
 10
-19.996275436
 20
2.515988372
 30
0.000000000
 10
-19.650345203
 20
3.049055233
 30
0.000000000
  0
SPLINE
  5
A3B
330
A02
100
AcDbEntity
  8
silk
100
AcDbSpline
210
0
220
0
230
1
 70
8
 71
2
 72
6
 73
3
 74
0
 40
0.000000000
 40
0.000000000
 40
0.000000000
 40
1.000000000
 40
1.000000000
 40
1.000000000
 10
-19.260446948
 20
0.291424419
 30
0.000000000
 10
-19.996275436
 20
0.952761628
 30
0.000000000
 10
-19.996275436
 20
1.903706395
 30
0.000000000
  0
SPLINE
  5
A3C
330
A02
100
AcDbEntity
  8
silk
100
AcDbSpline
210
0
220
0
230
1
 70
8
 71
2
 72
6
 73
3
 74
0
 40
0.000000000
 40
0.000000000
 40
0.000000000
 40
1.000000000
 40
1.000000000
 40
1.000000000
 10
-17.439952762
 20
-0.502906977
 30
0.000000000
 10
-18.737191134
 20
-0.178779070
 30
0.000000000
 10
-19.260446948
 20
0.291424419
 30
0.000000000
  0
SPLINE
  5
A3D
330
A02
100
AcDbEntity
  8
silk
100
AcDbSpline
210
0
220
0
230
1
 70
8
 71
2
 72
6
 73
3
 74
0
 40
0.000000000
 40
0.000000000
 40
0.000000000
 40
1.000000000
 40
1.000000000
 40
1.000000000
 10
-16.148164971
 20
-0.854651163
 30
0.000000000
 10
-16.431595203
 20
-0.755813953
 30
0.000000000
 10
-17.439952762
 20
-0.502906977
 30
0.000000000
  0
SPLINE
  5
A3E
330
A02
100
AcDbEntity
  8
silk
100
AcDbSpline
210
0
220
0
230
1
 70
8
 71
2
 72
6
 73
3
 74
0
 40
0.000000000
 40
0.000000000
 40
0.000000000
 40
1.000000000
 40
1.000000000
 40
1.000000000
 10
-15.567859738
 20
-1.197674419
 30
0.000000000
 10
-15.733920785
 20
-1.000363372
 30
0.000000000
 10
-16.148164971
 20
-0.854651163
 30
0.000000000
  0
SPLINE
  5
A3F
330
A02
100
AcDbEntity
  8
silk
100
AcDbSpline
210
0
220
0
230
1
 70
8
 71
2
 72
6
 73
3
 74
0
 40
0.000000000
 40
0.000000000
 40
0.000000000
 40
1.000000000
 40
1.000000000
 40
1.000000000
 10
-15.401435320
 20
-1.675872093
 30
0.000000000
 10
-15.401435320
 20
-1.394985465
 30
0.000000000
 10
-15.567859738
 20
-1.197674419
 30
0.000000000
  0
SPLINE
  5
A40
330
A02
100
AcDbEntity
  8
silk
100
AcDbSpline
210
0
220
0
230
1
 70
8
 71
2
 72
6
 73
3
 74
0
 40
0.000000000
 40
0.000000000
 40
0.000000000
 40
1.000000000
 40
1.000000000
 40
1.000000000
 10
-15.796784157
 20
-2.440770349
 30
0.000000000
 10
-15.401435320
 20
-2.113735465
 30
0.000000000
 10
-15.401435320
 20
-1.675872093
 30
0.000000000
  0
SPLINE
  5
A41
330
A02
100
AcDbEntity
  8
silk
100
AcDbSpline
210
0
220
0
230
1
 70
8
 71
2
 72
6
 73
3
 74
0
 40
0.000000000
 40
0.000000000
 40
0.000000000
 40
1.000000000
 40
1.000000000
 40
1.000000000
 10
-16.971202762
 20
-2.767441860
 30
0.000000000
 10
-16.191769622
 20
-2.767441860
 30
0.000000000
 10
-15.796784157
 20
-2.440770349
 30
0.000000000
  0
SPLINE
  5
A42
330
A02
100
AcDbEntity
  8
silk
100
AcDbSpline
210
0
220
0
230
1
 70
8
 71
2
 72
6
 73
3
 74
0
 40
0.000000000
 40
0.000000000
 40
0.000000000
 40
1.000000000
 40
1.000000000
 40
1.000000000
 10
-18.140534157
 20
-2.401889535
 30
0.000000000
 10
-17.707031250
 20
-2.767441860
 30
0.000000000
 10
-16.971202762
 20
-2.767441860
 30
0.000000000
  0
SPLINE
  5
A43
330
A02
100
AcDbEntity
  8
silk
100
AcDbSpline
210
0
220
0
230
1
 70
8
 71
2
 72
6
 73
3
 74
0
 40
0.000000000
 40
0.000000000
 40
0.000000000
 40
1.000000000
 40
1.000000000
 40
1.000000000
 10
-18.715388808
 20
-1.255813953
 30
0.000000000
 10
-18.573673692
 20
-2.035973837
 30
0.000000000
 10
-18.140534157
 20
-2.401889535
 30
0.000000000
  0
LINE
  5
A44
330
A02
100
AcDbEntity
  8
silk
100
AcDbLine
 10
-9.566133721
 20
-4.000000000
 30
0.000000000
 11
-9.566133721
 21
2.651162791
 31
0.000000000
  0
LINE
  5
A45
330
A02
100
AcDbEntity
  8
silk
100
AcDbLine
 10
-7.952761628
 20
-4.000000000
 30
0.000000000
 11
-9.566133721
 21
-4.000000000
 31
0.000000000
  0
LINE
  5
A46
330
A02
100
AcDbEntity
  8
silk
100
AcDbLine
 10
-7.952761628
 20
2.651162791
 30
0.000000000
 11
-7.952761628
 21
-4.000000000
 31
0.000000000
  0
LINE
  5
A47
330
A02
100
AcDbEntity
  8
silk
100
AcDbLine
 10
-5.587209302
 20
2.651162791
 30
0.000000000
 11
-7.952761628
 21
2.651162791
 31
0.000000000
  0
LINE
  5
A48
330
A02
100
AcDbEntity
  8
silk
100
AcDbLine
 10
-5.587209302
 20
4.000000000
 30
0.000000000
 11
-5.587209302
 21
2.651162791
 31
0.000000000
  0
LINE
  5
A49
330
A02
100
AcDbEntity
  8
silk
100
AcDbLine
 10
-11.937136628
 20
4.000000000
 30
0.000000000
 11
-5.587209302
 21
4.000000000
 31
0.000000000
  0
LINE
  5
A4A
330
A02
100
AcDbEntity
  8
silk
100
AcDbLine
 10
-11.937136628
 20
2.651162791
 30
0.000000000
 11
-11.937136628
 21
4.000000000
 31
0.000000000
  0
LINE
  5
A4B
330
A02
100
AcDbEntity
  8
silk
100
AcDbLine
 10
-9.566133721
 20
2.651162791
 30
0.000000000
 11
-11.937136628
 21
2.651162791
 31
0.000000000
  0
LINE
  5
A4C
330
A02
100
AcDbEntity
  8
silk
100
AcDbLine
 10
-3.475744913
 20
-4.000000000
 30
0.000000000
 11
-3.475744913
 21
4.000000000
 31
0.000000000
  0
LINE
  5
A4D
330
A02
100
AcDbEntity
  8
silk
100
AcDbLine
 10
-1.862372820
 20
-4.000000000
 30
0.000000000
 11
-3.475744913
 21
-4.000000000
 31
0.000000000
  0
LINE
  5
A4E
330
A02
100
AcDbEntity
  8
silk
100
AcDbLine
 10
-1.862372820
 20
-0.651162791
 30
0.000000000
 11
-1.862372820
 21
-4.000000000
 31
0.000000000
  0
LINE
  5
A4F
330
A02
100
AcDbEntity
  8
silk
100
AcDbLine
 10
-1.535337936
 20
-0.651162791
 30
0.000000000
 11
-1.862372820
 21
-0.651162791
 31
0.000000000
  0
SPLINE
  5
A50
330
A02
100
AcDbEntity
  8
silk
100
AcDbSpline
210
0
220
0
230
1
 70
8
 71
2
 72
6
 73
3
 74
0
 40
0.000000000
 40
0.000000000
 40
0.000000000
 40
1.000000000
 40
1.000000000
 40
1.000000000
 10
-0.723201308
 20
-0.741279070
 30
0.000000000
 10
-0.979378634
 20
-0.651162791
 30
0.000000000
 10
-1.535337936
 20
-0.651162791
 30
0.000000000
  0
SPLINE
  5
A51
330
A02
100
AcDbEntity
  8
silk
100
AcDbSpline
210
0
220
0
230
1
 70
8
 71
2
 72
6
 73
3
 74
0
 40
0.000000000
 40
0.000000000
 40
0.000000000
 40
1.000000000
 40
1.000000000
 40
1.000000000
 10
-0.238099564
 20
-1.074491279
 30
0.000000000
 10
-0.467023983
 20
-0.831395349
 30
0.000000000
 10
-0.723201308
 20
-0.741279070
 30
0.000000000
  0
SPLINE
  5
A52
330
A02
100
AcDbEntity
  8
silk
100
AcDbSpline
210
0
220
0
230
1
 70
8
 71
2
 72
6
 73
3
 74
0
 40
0.000000000
 40
0.000000000
 40
0.000000000
 40
1.000000000
 40
1.000000000
 40
1.000000000
 10
0.612191134
 20
-2.250726744
 30
0.000000000
 10
-0.009175145
 20
-1.317223837
 30
0.000000000
 10
-0.238099564
 20
-1.074491279
 30
0.000000000
  0
LINE
  5
A53
330
A02
100
AcDbEntity
  8
silk
100
AcDbLine
 10
1.778615552
 20
-4.000000000
 30
0.000000000
 11
0.612191134
 21
-2.250726744
 31
0.000000000
  0
LINE
  5
A54
330
A02
100
AcDbEntity
  8
silk
100
AcDbLine
 10
3.708121366
 20
-4.000000000
 30
0.000000000
 11
1.778615552
 21
-4.000000000
 31
0.000000000
  0
LINE
  5
A55
330
A02
100
AcDbEntity
  8
silk
100
AcDbLine
 10
2.732467297
 20
-2.435319767
 30
0.000000000
 11
3.708121366
 21
-4.000000000
 31
0.000000000
  0
SPLINE
  5
A56
330
A02
100
AcDbEntity
  8
silk
100
AcDbSpline
210
0
220
0
230
1
 70
8
 71
2
 72
6
 73
3
 74
0
 40
0.000000000
 40
0.000000000
 40
0.000000000
 40
1.000000000
 40
1.000000000
 40
1.000000000
 10
1.813862645
 20
-1.132994186
 30
0.000000000
 10
2.154705669
 20
-1.499636628
 30
0.000000000
 10
2.732467297
 20
-2.435319767
 30
0.000000000
  0
SPLINE
  5
A57
330
A02
100
AcDbEntity
  8
silk
100
AcDbSpline
210
0
220
0
230
1
 70
8
 71
2
 72
6
 73
3
 74
0
 40
0.000000000
 40
0.000000000
 40
0.000000000
 40
1.000000000
 40
1.000000000
 40
1.000000000
 10
0.950127180
 20
-0.460029070
 30
0.000000000
 10
1.473382994
 20
-0.766351744
 30
0.000000000
 10
1.813862645
 20
-1.132994186
 30
0.000000000
  0
SPLINE
  5
A58
330
A02
100
AcDbEntity
  8
silk
100
AcDbSpline
210
0
220
0
230
1
 70
8
 71
2
 72
6
 73
3
 74
0
 40
0.000000000
 40
0.000000000
 40
0.000000000
 40
1.000000000
 40
1.000000000
 40
1.000000000
 10
2.530795785
 20
0.277979651
 30
0.000000000
 10
2.002089390
 20
-0.307412791
 30
0.000000000
 10
0.950127180
 20
-0.460029070
 30
0.000000000
  0
SPLINE
  5
A59
330
A02
100
AcDbEntity
  8
silk
100
AcDbSpline
210
0
220
0
230
1
 70
8
 71
2
 72
6
 73
3
 74
0
 40
0.000000000
 40
0.000000000
 40
0.000000000
 40
1.000000000
 40
1.000000000
 40
1.000000000
 10
3.059502180
 20
1.761991279
 30
0.000000000
 10
3.059502180
 20
0.863372093
 30
0.000000000
 10
2.530795785
 20
0.277979651
 30
0.000000000
  0
SPLINE
  5
A5A
330
A02
100
AcDbEntity
  8
silk
100
AcDbSpline
210
0
220
0
230
1
 70
8
 71
2
 72
6
 73
3
 74
0
 40
0.000000000
 40
0.000000000
 40
0.000000000
 40
1.000000000
 40
1.000000000
 40
1.000000000
 10
2.710664971
 20
3.019622093
 30
0.000000000
 10
3.059502180
 20
2.469840116
 30
0.000000000
 10
3.059502180
 20
1.761991279
 30
0.000000000
  0
SPLINE
  5
A5B
330
A02
100
AcDbEntity
  8
silk
100
AcDbSpline
210
0
220
0
230
1
 70
8
 71
2
 72
6
 73
3
 74
0
 40
0.000000000
 40
0.000000000
 40
0.000000000
 40
1.000000000
 40
1.000000000
 40
1.000000000
 10
1.781159157
 20
3.784883721
 30
0.000000000
 10
2.361827762
 20
3.569767442
 30
0.000000000
 10
2.710664971
 20
3.019622093
 30
0.000000000
  0
SPLINE
  5
A5C
330
A02
100
AcDbEntity
  8
silk
100
AcDbSpline
210
0
220
0
230
1
 70
8
 71
2
 72
6
 73
3
 74
0
 40
0.000000000
 40
0.000000000
 40
0.000000000
 40
1.000000000
 40
1.000000000
 40
1.000000000
 10
-0.080032703
 20
4.000000000
 30
0.000000000
 10
1.200853924
 20
4.000000000
 30
0.000000000
 10
1.781159157
 20
3.784883721
 30
0.000000000
  0
LINE
  5
A5D
330
A02
100
AcDbEntity
  8
silk
100
AcDbLine
 10
-3.475744913
 20
4.000000000
 30
0.000000000
 11
-0.080032703
 21
4.000000000
 31
0.000000000
  0
LINE
  5
A5E
330
A02
100
AcDbEntity
  8
silk
100
AcDbLine
 10
-1.862372820
 20
0.627906977
 30
0.000000000
 11
-0.668695494
 21
0.627906977
 31
0.000000000
  0
LINE
  5
A5F
330
A02
100
AcDbEntity
  8
silk
100
AcDbLine
 10
-1.862372820
 20
2.651162791
 30
0.000000000
 11
-1.862372820
 21
0.627906977
 31
0.000000000
  0
LINE
  5
A60
330
A02
100
AcDbEntity
  8
silk
100
AcDbLine
 10
-0.603288517
 20
2.651162791
 30
0.000000000
 11
-1.862372820
 21
2.651162791
 31
0.000000000
  0
SPLINE
  5
A61
330
A02
100
AcDbEntity
  8
silk
100
AcDbSpline
210
0
220
0
230
1
 70
8
 71
2
 72
6
 73
3
 74
0
 40
0.000000000
 40
0.000000000
 40
0.000000000
 40
1.000000000
 40
1.000000000
 40
1.000000000
 10
0.574037064
 20
2.623909884
 30
0.000000000
 10
0.377816134
 20
2.651162791
 30
0.000000000
 10
-0.603288517
 20
2.651162791
 30
0.000000000
  0
SPLINE
  5
A62
330
A02
100
AcDbEntity
  8
silk
100
AcDbSpline
210
0
220
0
230
1
 70
8
 71
2
 72
6
 73
3
 74
0
 40
0.000000000
 40
0.000000000
 40
0.000000000
 40
1.000000000
 40
1.000000000
 40
1.000000000
 10
1.181595203
 20
2.311046512
 30
0.000000000
 10
0.966478924
 20
2.558866279
 30
0.000000000
 10
0.574037064
 20
2.623909884
 30
0.000000000
  0
SPLINE
  5
A63
330
A02
100
AcDbEntity
  8
silk
100
AcDbSpline
210
0
220
0
230
1
 70
8
 71
2
 72
6
 73
3
 74
0
 40
0.000000000
 40
0.000000000
 40
0.000000000
 40
1.000000000
 40
1.000000000
 40
1.000000000
 10
1.397074855
 20
1.661337209
 30
0.000000000
 10
1.397074855
 20
2.063590116
 30
0.000000000
 10
1.181595203
 20
2.311046512
 30
0.000000000
  0
SPLINE
  5
A64
330
A02
100
AcDbEntity
  8
silk
100
AcDbSpline
210
0
220
0
230
1
 70
8
 71
2
 72
6
 73
3
 74
0
 40
0.000000000
 40
0.000000000
 40
0.000000000
 40
1.000000000
 40
1.000000000
 40
1.000000000
 10
1.233557413
 20
1.062863372
 30
0.000000000
 10
1.397074855
 20
1.302325581
 30
0.000000000
 10
1.397074855
 20
1.661337209
 30
0.000000000
  0
SPLINE
  5
A65
330
A02
100
AcDbEntity
  8
silk
100
AcDbSpline
210
0
220
0
230
1
 70
8
 71
2
 72
6
 73
3
 74
0
 40
0.000000000
 40
0.000000000
 40
0.000000000
 40
1.000000000
 40
1.000000000
 40
1.000000000
 10
0.781159157
 20
0.725654070
 30
0.000000000
 10
1.070039971
 20
0.823764535
 30
0.000000000
 10
1.233557413
 20
1.062863372
 30
0.000000000
  0
SPLINE
  5
A66
330
A02
100
AcDbEntity
  8
silk
100
AcDbSpline
210
0
220
0
230
1
 70
8
 71
2
 72
6
 73
3
 74
0
 40
0.000000000
 40
0.000000000
 40
0.000000000
 40
1.000000000
 40
1.000000000
 40
1.000000000
 10
-0.668695494
 20
0.627906977
 30
0.000000000
 10
0.492278343
 20
0.627906977
 30
0.000000000
 10
0.781159157
 20
0.725654070
 30
0.000000000
  0
LINE
  5
A67
330
A02
100
AcDbEntity
  8
silk
100
AcDbLine
 10
5.658248547
 20
-4.000000000
 30
0.000000000
 11
5.658248547
 21
4.000000000
 31
0.000000000
  0
LINE
  5
A68
330
A02
100
AcDbEntity
  8
silk
100
AcDbLine
 10
11.735646802
 20
-4.000000000
 30
0.000000000
 11
5.658248547
 21
-4.000000000
 31
0.000000000
  0
LINE
  5
A69
330
A02
100
AcDbEntity
  8
silk
100
AcDbLine
 10
11.735646802
 20
-2.651162791
 30
0.000000000
 11
11.735646802
 21
-4.000000000
 31
0.000000000
  0
LINE
  5
A6A
330
A02
100
AcDbEntity
  8
silk
100
AcDbLine
 10
7.271620640
 20
-2.651162791
 30
0.000000000
 11
11.735646802
 21
-2.651162791
 31
0.000000000
  0
LINE
  5
A6B
330
A02
100
AcDbEntity
  8
silk
100
AcDbLine
 10
7.271620640
 20
-0.465116279
 30
0.000000000
 11
7.271620640
 21
-2.651162791
 31
0.000000000
  0
LINE
  5
A6C
330
A02
100
AcDbEntity
  8
silk
100
AcDbLine
 10
11.283248547
 20
-0.465116279
 30
0.000000000
 11
7.271620640
 21
-0.465116279
 31
0.000000000
  0
LINE
  5
A6D
330
A02
100
AcDbEntity
  8
silk
100
AcDbLine
 10
11.283248547
 20
0.883720930
 30
0.000000000
 11
11.283248547
 21
-0.465116279
 31
0.000000000
  0
LINE
  5
A6E
330
A02
100
AcDbEntity
  8
silk
100
AcDbLine
 10
7.271620640
 20
0.883720930
 30
0.000000000
 11
11.283248547
 21
0.883720930
 31
0.000000000
  0
LINE
  5
A6F
330
A02
100
AcDbEntity
  8
silk
100
AcDbLine
 10
7.271620640
 20
2.651162791
 30
0.000000000
 11
7.271620640
 21
0.883720930
 31
0.000000000
  0
LINE
  5
A70
330
A02
100
AcDbEntity
  8
silk
100
AcDbLine
 10
11.583030523
 20
2.651162791
 30
0.000000000
 11
7.271620640
 21
2.651162791
 31
0.000000000
  0
LINE
  5
A71
330
A02
100
AcDbEntity
  8
silk
100
AcDbLine
 10
11.583030523
 20
4.000000000
 30
0.000000000
 11
11.583030523
 21
2.651162791
 31
0.000000000
  0
LINE
  5
A72
330
A02
100
AcDbEntity
  8
silk
100
AcDbLine
 10
5.658248547
 20
4.000000000
 30
0.000000000
 11
11.583030523
 21
4.000000000
 31
0.000000000
  0
LINE
  5
A73
330
A02
100
AcDbEntity
  8
silk
100
AcDbLine
 10
21.375454215
 20
-4.000000000
 30
0.000000000
 11
19.620367006
 21
-4.000000000
 31
0.000000000
  0
LINE
  5
A74
330
A02
100
AcDbEntity
  8
silk
100
AcDbLine
 10
18.175962936
 20
4.000000000
 30
0.000000000
 11
21.375454215
 21
-4.000000000
 31
0.000000000
  0
LINE
  5
A75
330
A02
100
AcDbEntity
  8
silk
100
AcDbLine
 10
16.469930959
 20
4.000000000
 30
0.000000000
 11
18.175962936
 21
4.000000000
 31
0.000000000
  0
LINE
  5
A76
330
A02
100
AcDbEntity
  8
silk
100
AcDbLine
 10
13.357648983
 20
-4.000000000
 30
0.000000000
 11
16.469930959
 21
4.000000000
 31
0.000000000
  0
LINE
  5
A77
330
A02
100
AcDbEntity
  8
silk
100
AcDbLine
 10
15.069131541
 20
-4.000000000
 30
0.000000000
 11
13.357648983
 21
-4.000000000
 31
0.000000000
  0
LINE
  5
A78
330
A02
100
AcDbEntity
  8
silk
100
AcDbLine
 10
15.728651890
 20
-2.186046512
 30
0.000000000
 11
15.069131541
 21
-4.000000000
 31
0.000000000
  0
LINE
  5
A79
330
A02
100
AcDbEntity
  8
silk
100
AcDbLine
 10
18.922692587
 20
-2.186046512
 30
0.000000000
 11
15.728651890
 21
-2.186046512
 31
0.000000000
  0
LINE
  5
A7A
330
A02
100
AcDbEntity
  8
silk
100
AcDbLine
 10
19.620367006
 20
-4.000000000
 30
0.000000000
 11
18.922692587
 21
-2.186046512
 31
0.000000000
  0
LINE
  5
A7B
330
A02
100
AcDbEntity
  8
silk
100
AcDbLine
 10
18.404887355
 20
-0.837209302
 30
0.000000000
 11
17.303869913
 21
2.139534884
 31
0.000000000
  0
LINE
  5
A7C
330
A02
100
AcDbEntity
  8
silk
100
AcDbLine
 10
16.224654797
 20
-0.837209302
 30
0.000000000
 11
18.404887355
 21
-0.837209302
 31
0.000000000
  0
LINE
  5
A7D
330
A02
100
AcDbEntity
  8
silk
100
AcDbLine
 10
17.303869913
 20
2.139534884
 30
0.000000000
 11
16.224654797
 21
-0.837209302
 31
0.000000000
  0
LINE
  5
A7E
330
A02
100
AcDbEntity
  8
silk
100
AcDbLine
 10
23.287427326
 20
-4.000000000
 30
0.000000000
 11
23.287427326
 21
4.000000000
 31
0.000000000
  0
LINE
  5
A7F
330
A02
100
AcDbEntity
  8
silk
100
AcDbLine
 10
24.786337209
 20
-4.000000000
 30
0.000000000
 11
23.287427326
 21
-4.000000000
 31
0.000000000
  0
LINE
  5
A80
330
A02
100
AcDbEntity
  8
silk
100
AcDbLine
 10
24.786337209
 20
2.297238372
 30
0.000000000
 11
24.786337209
 21
-4.000000000
 31
0.000000000
  0
LINE
  5
A81
330
A02
100
AcDbEntity
  8
silk
100
AcDbLine
 10
26.367005814
 20
-4.000000000
 30
0.000000000
 11
24.786337209
 21
2.297238372
 31
0.000000000
  0
LINE
  5
A82
330
A02
100
AcDbEntity
  8
silk
100
AcDbLine
 10
27.920421512
 20
-4.000000000
 30
0.000000000
 11
26.367005814
 21
-4.000000000
 31
0.000000000
  0
LINE
  5
A83
330
A02
100
AcDbEntity
  8
silk
100
AcDbLine
 10
29.506540698
 20
2.297238372
 30
0.000000000
 11
27.920421512
 21
-4.000000000
 31
0.000000000
  0
LINE
  5
A84
330
A02
100
AcDbEntity
  8
silk
100
AcDbLine
 10
29.506540698
 20
-4.000000000
 30
0.000000000
 11
29.506540698
 21
2.297238372
 31
0.000000000
  0
LINE
  5
A85
330
A02
100
AcDbEntity
  8
silk
100
AcDbLine
 10
31.005450581
 20
-4.000000000
 30
0.000000000
 11
29.506540698
 21
-4.000000000
 31
0.000000000
  0
LINE
  5
A86
330
A02
100
AcDbEntity
  8
silk
100
AcDbLine
 10
31.005450581
 20
4.000000000
 30
0.000000000
 11
31.005450581
 21
-4.000000000
 31
0.000000000
  0
LINE
  5
A87
330
A02
100
AcDbEntity
  8
silk
100
AcDbLine
 10
28.585392442
 20
4.000000000
 30
0.000000000
 11
31.005450581
 21
4.000000000
 31
0.000000000
  0
LINE
  5
A88
330
A02
100
AcDbEntity
  8
silk
100
AcDbLine
 10
27.151889535
 20
-1.457122093
 30
0.000000000
 11
28.585392442
 21
4.000000000
 31
0.000000000
  0
LINE
  5
A89
330
A02
100
AcDbEntity
  8
silk
100
AcDbLine
 10
25.702034884
 20
4.000000000
 30
0.000000000
 11
27.151889535
 21
-1.457122093
 31
0.000000000
  0
LINE
  5
A8A
330
A02
100
AcDbEntity
  8
silk
100
AcDbLine
 10
23.287427326
 20
4.000000000
 30
0.000000000
 11
25.702034884
 21
4.000000000
 31
0.000000000
  0
LINE
  5
A8B
330
A02
100
AcDbEntity
  8
silk
100
AcDbLine
 10
33.681231831
 20
-4.000000000
 30
0.000000000
 11
33.681231831
 21
4.000000000
 31
0.000000000
  0
LINE
  5
A8C
330
A02
100
AcDbEntity
  8
silk
100
AcDbLine
 10
39.758630087
 20
-4.000000000
 30
0.000000000
 11
33.681231831
 21
-4.000000000
 31
0.000000000
  0
LINE
  5
A8D
330
A02
100
AcDbEntity
  8
silk
100
AcDbLine
 10
39.758630087
 20
-2.651162791
 30
0.000000000
 11
39.758630087
 21
-4.000000000
 31
0.000000000
  0
LINE
  5
A8E
330
A02
100
AcDbEntity
  8
silk
100
AcDbLine
 10
35.294603924
 20
-2.651162791
 30
0.000000000
 11
39.758630087
 21
-2.651162791
 31
0.000000000
  0
LINE
  5
A8F
330
A02
100
AcDbEntity
  8
silk
100
AcDbLine
 10
35.294603924
 20
-0.465116279
 30
0.000000000
 11
35.294603924
 21
-2.651162791
 31
0.000000000
  0
LINE
  5
A90
330
A02
100
AcDbEntity
  8
silk
100
AcDbLine
 10
39.306231831
 20
-0.465116279
 30
0.000000000
 11
35.294603924
 21
-0.465116279
 31
0.000000000
  0
LINE
  5
A91
330
A02
100
AcDbEntity
  8
silk
100
AcDbLine
 10
39.306231831
 20
0.883720930
 30
0.000000000
 11
39.306231831
 21
-0.465116279
 31
0.000000000
  0
LINE
  5
A92
330
A02
100
AcDbEntity
  8
silk
100
AcDbLine
 10
35.294603924
 20
0.883720930
 30
0.000000000
 11
39.306231831
 21
0.883720930
 31
0.000000000
  0
LINE
  5
A93
330
A02
100
AcDbEntity
  8
silk
100
AcDbLine
 10
35.294603924
 20
2.651162791
 30
0.000000000
 11
35.294603924
 21
0.883720930
 31
0.000000000
  0
LINE
  5
A94
330
A02
100
AcDbEntity
  8
silk
100
AcDbLine
 10
39.606013808
 20
2.651162791
 30
0.000000000
 11
35.294603924
 21
2.651162791
 31
0.000000000
  0
LINE
  5
A95
330
A02
100
AcDbEntity
  8
silk
100
AcDbLine
 10
39.606013808
 20
4.000000000
 30
0.000000000
 11
39.606013808
 21
2.651162791
 31
0.000000000
  0
LINE
  5
A96
330
A02
100
AcDbEntity
  8
silk
100
AcDbLine
 10
33.681231831
 20
4.000000000
 30
0.000000000
 11
39.606013808
 21
4.000000000
 31
0.000000000
  0
LINE
  5
A97
330
A02
100
AcDbEntity
  8
silk
100
AcDbLine
 10
42.198219477
 20
-4.000000000
 30
0.000000000
 11
42.198219477
 21
4.000000000
 31
0.000000000
  0
LINE
  5
A98
330
A02
100
AcDbEntity
  8
silk
100
AcDbLine
 10
43.811591570
 20
-4.000000000
 30
0.000000000
 11
42.198219477
 21
-4.000000000
 31
0.000000000
  0
LINE
  5
A99
330
A02
100
AcDbEntity
  8
silk
100
AcDbLine
 10
43.811591570
 20
-0.651162791
 30
0.000000000
 11
43.811591570
 21
-4.000000000
 31
0.000000000
  0
LINE
  5
A9A
330
A02
100
AcDbEntity
  8
silk
100
AcDbLine
 10
44.138626453
 20
-0.651162791
 30
0.000000000
 11
43.811591570
 21
-0.651162791
 31
0.000000000
  0
SPLINE
  5
A9B
330
A02
100
AcDbEntity
  8
silk
100
AcDbSpline
210
0
220
0
230
1
 70
8
 71
2
 72
6
 73
3
 74
0
 40
0.000000000
 40
0.000000000
 40
0.000000000
 40
1.000000000
 40
1.000000000
 40
1.000000000
 10
44.950763081
 20
-0.741279070
 30
0.000000000
 10
44.694585756
 20
-0.651162791
 30
0.000000000
 10
44.138626453
 20
-0.651162791
 30
0.000000000
  0
SPLINE
  5
A9C
330
A02
100
AcDbEntity
  8
silk
100
AcDbSpline
210
0
220
0
230
1
 70
8
 71
2
 72
6
 73
3
 74
0
 40
0.000000000
 40
0.000000000
 40
0.000000000
 40
1.000000000
 40
1.000000000
 40
1.000000000
 10
45.435864826
 20
-1.074491279
 30
0.000000000
 10
45.206940407
 20
-0.831395349
 30
0.000000000
 10
44.950763081
 20
-0.741279070
 30
0.000000000
  0
SPLINE
  5
A9D
330
A02
100
AcDbEntity
  8
silk
100
AcDbSpline
210
0
220
0
230
1
 70
8
 71
2
 72
6
 73
3
 74
0
 40
0.000000000
 40
0.000000000
 40
0.000000000
 40
1.000000000
 40
1.000000000
 40
1.000000000
 10
46.286155523
 20
-2.250726744
 30
0.000000000
 10
45.664789244
 20
-1.317223837
 30
0.000000000
 10
45.435864826
 20
-1.074491279
 30
0.000000000
  0
LINE
  5
A9E
330
A02
100
AcDbEntity
  8
silk
100
AcDbLine
 10
47.452579942
 20
-4.000000000
 30
0.000000000
 11
46.286155523
 21
-2.250726744
 31
0.000000000
  0
LINE
  5
A9F
330
A02
100
AcDbEntity
  8
silk
100
AcDbLine
 10
49.382085756
 20
-4.000000000
 30
0.000000000
 11
47.452579942
 21
-4.000000000
 31
0.000000000
  0
LINE
  5
AA0
330
A02
100
AcDbEntity
  8
silk
100
AcDbLine
 10
48.406431686
 20
-2.435319767
 30
0.000000000
 11
49.382085756
 21
-4.000000000
 31
0.000000000
  0
SPLINE
  5
AA1
330
A02
100
AcDbEntity
  8
silk
100
AcDbSpline
210
0
220
0
230
1
 70
8
 71
2
 72
6
 73
3
 74
0
 40
0.000000000
 40
0.000000000
 40
0.000000000
 40
1.000000000
 40
1.000000000
 40
1.000000000
 10
47.487827035
 20
-1.132994186
 30
0.000000000
 10
47.828670058
 20
-1.499636628
 30
0.000000000
 10
48.406431686
 20
-2.435319767
 30
0.000000000
  0
SPLINE
  5
AA2
330
A02
100
AcDbEntity
  8
silk
100
AcDbSpline
210
0
220
0
230
1
 70
8
 71
2
 72
6
 73
3
 74
0
 40
0.000000000
 40
0.000000000
 40
0.000000000
 40
1.000000000
 40
1.000000000
 40
1.000000000
 10
46.624091570
 20
-0.460029070
 30
0.000000000
 10
47.147347384
 20
-0.766351744
 30
0.000000000
 10
47.487827035
 20
-1.132994186
 30
0.000000000
  0
SPLINE
  5
AA3
330
A02
100
AcDbEntity
  8
silk
100
AcDbSpline
210
0
220
0
230
1
 70
8
 71
2
 72
6
 73
3
 74
0
 40
0.000000000
 40
0.000000000
 40
0.000000000
 40
1.000000000
 40
1.000000000
 40
1.000000000
 10
48.204760174
 20
0.277979651
 30
0.000000000
 10
47.676053779
 20
-0.307412791
 30
0.000000000
 10
46.624091570
 20
-0.460029070
 30
0.000000000
  0
SPLINE
  5
AA4
330
A02
100
AcDbEntity
  8
silk
100
AcDbSpline
210
0
220
0
230
1
 70
8
 71
2
 72
6
 73
3
 74
0
 40
0.000000000
 40
0.000000000
 40
0.000000000
 40
1.000000000
 40
1.000000000
 40
1.000000000
 10
48.733466570
 20
1.761991279
 30
0.000000000
 10
48.733466570
 20
0.863372093
 30
0.000000000
 10
48.204760174
 20
0.277979651
 30
0.000000000
  0
SPLINE
  5
AA5
330
A02
100
AcDbEntity
  8
silk
100
AcDbSpline
210
0
220
0
230
1
 70
8
 71
2
 72
6
 73
3
 74
0
 40
0.000000000
 40
0.000000000
 40
0.000000000
 40
1.000000000
 40
1.000000000
 40
1.000000000
 10
48.384629360
 20
3.019622093
 30
0.000000000
 10
48.733466570
 20
2.469840116
 30
0.000000000
 10
48.733466570
 20
1.761991279
 30
0.000000000
  0
SPLINE
  5
AA6
330
A02
100
AcDbEntity
  8
silk
100
AcDbSpline
210
0
220
0
230
1
 70
8
 71
2
 72
6
 73
3
 74
0
 40
0.000000000
 40
0.000000000
 40
0.000000000
 40
1.000000000
 40
1.000000000
 40
1.000000000
 10
47.455123547
 20
3.784883721
 30
0.000000000
 10
48.035792151
 20
3.569767442
 30
0.000000000
 10
48.384629360
 20
3.019622093
 30
0.000000000
  0
SPLINE
  5
AA7
330
A02
100
AcDbEntity
  8
silk
100
AcDbSpline
210
0
220
0
230
1
 70
8
 71
2
 72
6
 73
3
 74
0
 40
0.000000000
 40
0.000000000
 40
0.000000000
 40
1.000000000
 40
1.000000000
 40
1.000000000
 10
45.593931686
 20
4.000000000
 30
0.000000000
 10
46.874818314
 20
4.000000000
 30
0.000000000
 10
47.455123547
 20
3.784883721
 30
0.000000000
  0
LINE
  5
AA8
330
A02
100
AcDbEntity
  8
silk
100
AcDbLine
 10
42.198219477
 20
4.000000000
 30
0.000000000
 11
45.593931686
 21
4.000000000
 31
0.000000000
  0
LINE
  5
AA9
330
A02
100
AcDbEntity
  8
silk
100
AcDbLine
 10
43.811591570
 20
0.627906977
 30
0.000000000
 11
45.005268895
 21
0.627906977
 31
0.000000000
  0
LINE
  5
AAA
330
A02
100
AcDbEntity
  8
silk
100
AcDbLine
 10
43.811591570
 20
2.651162791
 30
0.000000000
 11
43.811591570
 21
0.627906977
 31
0.000000000
  0
LINE
  5
AAB
330
A02
100
AcDbEntity
  8
silk
100
AcDbLine
 10
45.070675872
 20
2.651162791
 30
0.000000000
 11
43.811591570
 21
2.651162791
 31
0.000000000
  0
SPLINE
  5
AAC
330
A02
100
AcDbEntity
  8
silk
100
AcDbSpline
210
0
220
0
230
1
 70
8
 71
2
 72
6
 73
3
 74
0
 40
0.000000000
 40
0.000000000
 40
0.000000000
 40
1.000000000
 40
1.000000000
 40
1.000000000
 10
46.248001453
 20
2.623909884
 30
0.000000000
 10
46.051780523
 20
2.651162791
 30
0.000000000
 10
45.070675872
 20
2.651162791
 30
0.000000000
  0
SPLINE
  5
AAD
330
A02
100
AcDbEntity
  8
silk
100
AcDbSpline
210
0
220
0
230
1
 70
8
 71
2
 72
6
 73
3
 74
0
 40
0.000000000
 40
0.000000000
 40
0.000000000
 40
1.000000000
 40
1.000000000
 40
1.000000000
 10
46.855559593
 20
2.311046512
 30
0.000000000
 10
46.640443314
 20
2.558866279
 30
0.000000000
 10
46.248001453
 20
2.623909884
 30
0.000000000
  0
SPLINE
  5
AAE
330
A02
100
AcDbEntity
  8
silk
100
AcDbSpline
210
0
220
0
230
1
 70
8
 71
2
 72
6
 73
3
 74
0
 40
0.000000000
 40
0.000000000
 40
0.000000000
 40
1.000000000
 40
1.000000000
 40
1.000000000
 10
47.071039244
 20
1.661337209
 30
0.000000000
 10
47.071039244
 20
2.063590116
 30
0.000000000
 10
46.855559593
 20
2.311046512
 30
0.000000000
  0
SPLINE
  5
AAF
330
A02
100
AcDbEntity
  8
silk
100
AcDbSpline
210
0
220
0
230
1
 70
8
 71
2
 72
6
 73
3
 74
0
 40
0.000000000
 40
0.000000000
 40
0.000000000
 40
1.000000000
 40
1.000000000
 40
1.000000000
 10
46.907521802
 20
1.062863372
 30
0.000000000
 10
47.071039244
 20
1.302325581
 30
0.000000000
 10
47.071039244
 20
1.661337209
 30
0.000000000
  0
SPLINE
  5
AB0
330
A02
100
AcDbEntity
  8
silk
100
AcDbSpline
210
0
220
0
230
1
 70
8
 71
2
 72
6
 73
3
 74
0
 40
0.000000000
 40
0.000000000
 40
0.000000000
 40
1.000000000
 40
1.000000000
 40
1.000000000
 10
46.455123547
 20
0.725654070
 30
0.000000000
 10
46.744004360
 20
0.823764535
 30
0.000000000
 10
46.907521802
 20
1.062863372
 30
0.000000000
  0
SPLINE
  5
AB1
330
A02
100
AcDbEntity
  8
silk
100
AcDbSpline
210
0
220
0
230
1
 70
8
 71
2
 72
6
 73
3
 74
0
 40
0.000000000
 40
0.000000000
 40
0.000000000
 40
1.000000000
 40
1.000000000
 40
1.000000000
 10
45.005268895
 20
0.627906977
 30
0.000000000
 10
46.166242733
 20
0.627906977
 30
0.000000000
 10
46.455123547
 20
0.725654070
 30
0.000000000
  0
ENDSEC
  0
SECTION
  2
OBJECTS
  0
DICTIONARY
  5
F000
330
0
100
AcDbDictionary
  3
ACAD_GROUP
350
F001
  0
DICTIONARY
  5
F001
330
F000
100
AcDbDictionary
  0
ENDSEC
  0
EOF